<?xml version="1.0" encoding="UTF-8"?>
<!DOCTYPE svg PUBLIC "-//W3C//DTD SVG 1.1//EN" "http://www.w3.org/Graphics/SVG/1.1/DTD/svg11.dtd">
<!-- Creator: CorelDRAW 2021.5 -->
<svg xmlns="http://www.w3.org/2000/svg" xml:space="preserve" width="13.8427mm" height="13.8316mm" version="1.1" style="shape-rendering:geometricPrecision; text-rendering:geometricPrecision; image-rendering:optimizeQuality; fill-rule:evenodd; clip-rule:evenodd"
viewBox="0 0 6.07 6.06"
 xmlns:xlink="http://www.w3.org/1999/xlink"
 xmlns:xodm="http://www.corel.com/coreldraw/odm/2003">
 <defs>
  <style type="text/css">
   <![CDATA[
    .fil0 {fill:#FEFEFE}
   ]]>
  </style>
 </defs>
 <g id="Capa_x0020_1">
  <metadata id="CorelCorpID_0Corel-Layer"/>
  <g id="_1825067577200">
   <path class="fil0" d="M3.89 4.5c0.23,-1.34 1.48,-1.99 2.15,-1.81 0.02,0.15 0.04,0.52 0.01,0.64 -0.38,-0.61 -1.46,0.61 -1.45,1.19 -0,-0.33 -1.03,2.41 -0.72,-0.02z"/>
   <path class="fil0" d="M5.71 1.57c-0.75,-0.66 -2.01,-0.13 -2.1,0.9 0.19,-0.19 0.66,-0.43 0.92,-0.31l0.01 0.16c-0.15,0.02 -1.13,0.6 -1.27,1.07 -0.95,1.07 0.2,-2.45 -0.33,-1.1 -0,-1.32 1.23,-2.16 2.1,-1.53 0.07,0.05 0.6,0.6 0.67,0.81z"/>
   <path class="fil0" d="M1.21 0.62c-0.41,0.23 -0.95,1.2 -1.07,1.77 0.3,-0.13 0.45,-0.03 0.59,-0.36 0.08,-0.85 0.35,-1.12 0.49,-1.4z"/>
   <path class="fil0" d="M4.6 0.53c-0.14,-0 -0.36,0.01 -0.54,0.01 -0.5,-0.58 -1.91,0.01 -1.99,1.95 -0.4,0.46 -0.61,0.55 -0.65,-0.8 -0.06,-1.04 0.8,-1.62 1.42,-1.66 0.3,-0.03 1.06,-0.09 1.76,0.51z"/>
   <path class="fil0" d="M5.24 0.95c-1.14,0.01 -1.59,0.59 -1.69,1.52 0.25,-0.5 0.86,-0.53 0.98,-0.52l0.01 0.29c-0.35,0.13 -1.07,0.66 -1.15,0.87 -0.3,0.86 -1.29,2.1 -2.79,1.64 -0.1,-0.13 -0.22,-0.21 -0.27,-0.33 1.25,0.31 2.74,-1.05 2.56,-2.17 -0,-1.32 1.23,-2.16 2.1,-1.53 0.07,0.05 0.14,0.12 0.25,0.23z"/>
   <path class="fil0" d="M3.84 0.1c-1.27,-0.04 -1.84,1.1 -1.76,1.93 0.13,0.83 -0.41,1.99 -2.03,1.51 -0.05,-0.25 -0.03,-0.38 -0.04,-0.63 1.04,0.25 1.5,-0.15 1.36,-1.23 -0.06,-1.04 0.8,-1.62 1.42,-1.66 0.3,-0.03 0.79,0.01 1.06,0.09z"/>
   <path class="fil0" d="M1.99 5.88c-0.18,-0.06 -0.32,-0.14 -0.44,-0.2 1.24,0.01 2.14,-0.2 2.33,-1.26 0.23,-1.34 1.48,-1.99 2.15,-1.81 0,0.03 0.03,0.35 0.02,0.4 -0.68,-0.17 -1.47,0.53 -1.46,1.44 0.15,1.09 -1.03,2.02 -2.61,1.44z"/>
   <path class="fil0" d="M1.09 0.7c-0.41,0.35 -0.9,1.14 -1.02,1.7 0.46,0.12 0.7,-0.23 0.66,-0.56 -0.05,-0.38 0.14,-0.76 0.36,-1.14z"/>
   <g>
    <path class="fil0" d="M4.88 5.44c0.41,-0.23 0.95,-1.2 1.07,-1.77 -0.3,0.13 -0.45,0.03 -0.59,0.36 -0.08,0.85 -0.35,1.12 -0.49,1.4z"/>
    <path class="fil0" d="M5 5.36c0.41,-0.35 0.9,-1.14 1.02,-1.7 -0.46,-0.12 -0.7,0.23 -0.66,0.56 0.05,0.38 -0.14,0.76 -0.36,1.14z"/>
   </g>
  </g>
 </g>
</svg>
